<mxfile host="65bd71144e">
    <diagram id="_UL_HggESThi6Qo86t4a" name="Page-1">
        <mxGraphModel dx="710" dy="779" grid="1" gridSize="10" guides="1" tooltips="1" connect="1" arrows="1" fold="1" page="1" pageScale="1" pageWidth="850" pageHeight="1100" math="0" shadow="0">
            <root>
                <mxCell id="0"/>
                <mxCell id="1" parent="0"/>
                <mxCell id="3" value="Application" style="swimlane;" parent="1" vertex="1">
                    <mxGeometry x="120" y="40" width="400" height="400" as="geometry"/>
                </mxCell>
                <mxCell id="4" value="Views" style="rounded=0;whiteSpace=wrap;html=1;fontSize=18;" parent="3" vertex="1">
                    <mxGeometry x="20" y="40" width="360" height="40" as="geometry"/>
                </mxCell>
                <mxCell id="5" value="ViewModels" style="rounded=0;whiteSpace=wrap;html=1;fontSize=18;" parent="3" vertex="1">
                    <mxGeometry x="20" y="100" width="360" height="40" as="geometry"/>
                </mxCell>
                <mxCell id="9" value="Models" style="swimlane;" parent="3" vertex="1">
                    <mxGeometry x="20" y="160" width="360" height="160" as="geometry"/>
                </mxCell>
                <mxCell id="11" value="FontService" style="rounded=0;whiteSpace=wrap;html=1;fontSize=18;" parent="9" vertex="1">
                    <mxGeometry x="20" y="40" width="320" height="40" as="geometry"/>
                </mxCell>
                <mxCell id="12" value="DirectWrite" style="rounded=0;whiteSpace=wrap;html=1;fontSize=18;" parent="9" vertex="1">
                    <mxGeometry x="20" y="100" width="320" height="40" as="geometry"/>
                </mxCell>
                <mxCell id="19" value="" style="endArrow=classic;html=1;" parent="9" source="11" target="12" edge="1">
                    <mxGeometry width="50" height="50" relative="1" as="geometry">
                        <mxPoint x="480" y="110" as="sourcePoint"/>
                        <mxPoint x="530" y="60" as="targetPoint"/>
                    </mxGeometry>
                </mxCell>
                <mxCell id="14" value="System Font Collection" style="rounded=0;whiteSpace=wrap;html=1;fontSize=18;" parent="3" vertex="1">
                    <mxGeometry x="20" y="340" width="360" height="40" as="geometry"/>
                </mxCell>
                <mxCell id="16" value="" style="endArrow=none;dashed=1;html=1;" parent="3" source="5" target="4" edge="1">
                    <mxGeometry width="50" height="50" relative="1" as="geometry">
                        <mxPoint x="450" y="210" as="sourcePoint"/>
                        <mxPoint x="500" y="160" as="targetPoint"/>
                    </mxGeometry>
                </mxCell>
                <mxCell id="17" value="" style="endArrow=none;dashed=1;html=1;" parent="3" source="9" target="5" edge="1">
                    <mxGeometry width="50" height="50" relative="1" as="geometry">
                        <mxPoint x="460" y="240" as="sourcePoint"/>
                        <mxPoint x="510" y="190" as="targetPoint"/>
                    </mxGeometry>
                </mxCell>
                <mxCell id="21" value="" style="endArrow=classic;html=1;" parent="3" source="12" target="14" edge="1">
                    <mxGeometry width="50" height="50" relative="1" as="geometry">
                        <mxPoint x="440" y="270" as="sourcePoint"/>
                        <mxPoint x="490" y="220" as="targetPoint"/>
                    </mxGeometry>
                </mxCell>
            </root>
        </mxGraphModel>
    </diagram>
</mxfile>